<svg
  class="fill-gray-300 hover:fill-gray-500"
  height="20px"
  width="20px"
  version="1.1"
  id="Capa_1"
  xmlns="http://www.w3.org/2000/svg"
  xmlns:xlink="http://www.w3.org/1999/xlink"
  viewBox="0 0 284.248 284.248"
  xml:space="preserve"
>
  <path
    d="M278.523,59.236c-1.646-0.899-3.46-1.345-5.27-1.345c-2.073,0-4.141,0.584-5.946,1.742L209.141,95.09V74.802  c-0.001-9.763-7.917-17.678-17.677-17.678H17.678C7.915,57.124,0,65.039,0,74.802v134.645c0,9.763,7.915,17.678,17.678,17.678  h173.786c9.76,0,17.676-7.915,17.676-17.678v-20.29l58.166,35.457c1.804,1.159,3.868,1.742,5.944,1.742  c1.807,0,3.624-0.448,5.272-1.345c3.528-1.927,5.725-5.632,5.725-9.657V68.895C284.249,64.87,282.052,61.164,278.523,59.236z   M254.482,181.933l-45.341-27.64v-24.34l45.341-27.64V181.933z"
  />
</svg>
